<?xml version="1.0" encoding="UTF-8" standalone="no"?>
<!-- Created with Inkscape (http://www.inkscape.org/) -->

<svg
   version="1.1"
   id="svg1"
   width="704"
   height="446"
   viewBox="0 0 704 446"
   xmlns="http://www.w3.org/2000/svg"
   xmlns:svg="http://www.w3.org/2000/svg">
  <defs
     id="defs1" />
  <g
     id="g1"
     transform="translate(-55.999996,-66)">
    <g
       id="g2">
      <path
         id="path2"
         d="M 8,18 H 712 V 464 H 8 Z"
         style="fill:#ffffff;fill-opacity:1;fill-rule:nonzero;stroke:none"
         transform="translate(47.999998,47.999998)" />
    </g>
    <g
       id="g3">
      <path
         id="path3"
         d="M 8,19 H 712 V 56 H 8 Z"
         style="fill:#ffffff;fill-opacity:1;fill-rule:nonzero;stroke:none"
         transform="translate(47.999998,47.999998)" />
    </g>
    <g
       id="g4">
      <path
         id="path4"
         d="M 8,19 H 712 V 56 H 8 Z"
         style="fill:#ffffff;fill-opacity:1;fill-rule:nonzero;stroke:none"
         transform="translate(47.999998,47.999998)" />
    </g>
    <g
       id="g5">
      <path
         id="path5"
         d="m 8,56 h 271 v 55 H 8 Z"
         style="fill:#ffffff;fill-opacity:1;fill-rule:nonzero;stroke:none"
         transform="translate(47.999998,47.999998)" />
    </g>
    <g
       id="g6">
      <path
         id="path6"
         d="m 279,56 h 82 v 55 h -82 z"
         style="fill:#ffffff;fill-opacity:1;fill-rule:nonzero;stroke:none"
         transform="translate(47.999998,47.999998)" />
    </g>
    <g
       id="g7">
      <path
         id="path7"
         d="m 361,56 h 99 v 55 h -99 z"
         style="fill:#ffffff;fill-opacity:1;fill-rule:nonzero;stroke:none"
         transform="translate(47.999998,47.999998)" />
    </g>
    <g
       id="g8">
      <path
         id="path8"
         d="m 460,56 h 96 v 55 h -96 z"
         style="fill:#ffffff;fill-opacity:1;fill-rule:nonzero;stroke:none"
         transform="translate(47.999998,47.999998)" />
    </g>
    <g
       id="g9">
      <path
         id="path9"
         d="m 556,56 h 86 v 55 h -86 z"
         style="fill:#ffffff;fill-opacity:1;fill-rule:nonzero;stroke:none"
         transform="translate(47.999998,47.999998)" />
    </g>
    <g
       id="g10">
      <path
         id="path10"
         d="m 642,56 h 70 v 55 h -70 z"
         style="fill:#ffffff;fill-opacity:1;fill-rule:nonzero;stroke:none"
         transform="translate(47.999998,47.999998)" />
    </g>
    <g
       id="g11">
      <path
         id="path11"
         d="m 8,111 h 704 v 3 H 8 Z"
         style="fill:#ffffff;fill-opacity:1;fill-rule:nonzero;stroke:none"
         transform="translate(47.999998,47.999998)" />
    </g>
    <g
       id="g12">
      <path
         id="path12"
         d="m 8,114 h 271 v 39 H 8 Z"
         style="fill:#ffffff;fill-opacity:1;fill-rule:nonzero;stroke:none"
         transform="translate(47.999998,47.999998)" />
    </g>
    <g
       id="g13">
      <path
         id="path13"
         d="m 8,153 h 271 v 38 H 8 Z"
         style="fill:#ffffff;fill-opacity:1;fill-rule:nonzero;stroke:none"
         transform="translate(47.999998,47.999998)" />
    </g>
    <g
       id="g14">
      <path
         id="path14"
         d="m 8,191 h 271 v 59 H 8 Z"
         style="fill:#ffffff;fill-opacity:1;fill-rule:nonzero;stroke:none"
         transform="translate(47.999998,47.999998)" />
    </g>
    <g
       id="g15">
      <path
         id="path15"
         d="m 8,250 h 271 v 59 H 8 Z"
         style="fill:#ffffff;fill-opacity:1;fill-rule:nonzero;stroke:none"
         transform="translate(47.999998,47.999998)" />
    </g>
    <g
       id="g16">
      <path
         id="path16"
         d="m 8,309 h 704 v 39 H 8 Z"
         style="fill:#ffffff;fill-opacity:1;fill-rule:nonzero;stroke:none"
         transform="translate(47.999998,47.999998)" />
    </g>
    <g
       id="g17">
      <path
         id="path17"
         d="m 8,348 h 271 v 39 H 8 Z"
         style="fill:#ffffff;fill-opacity:1;fill-rule:nonzero;stroke:none"
         transform="translate(47.999998,47.999998)" />
    </g>
    <g
       id="g18">
      <path
         id="path18"
         d="m 8,387 h 271 v 38 H 8 Z"
         style="fill:#ffffff;fill-opacity:1;fill-rule:nonzero;stroke:none"
         transform="translate(47.999998,47.999998)" />
    </g>
    <g
       id="g19">
      <path
         id="path19"
         d="m 8,425 h 271 v 38 H 8 Z"
         style="fill:#ffffff;fill-opacity:1;fill-rule:nonzero;stroke:none"
         transform="translate(47.999998,47.999998)" />
    </g>
    <g
       id="g20">
      <path
         id="path20"
         d="m 8,18 h 271 v 2 H 8 Z"
         style="fill:#a8a8a8;fill-opacity:1;fill-rule:nonzero;stroke:none"
         transform="translate(47.999998,47.999998)" />
      <path
         id="path21"
         d="m 279,18 h 82 v 2 h -82 z"
         style="fill:#a8a8a8;fill-opacity:1;fill-rule:nonzero;stroke:none"
         transform="translate(47.999998,47.999998)" />
      <path
         id="path22"
         d="m 361,18 h 99 v 2 h -99 z"
         style="fill:#a8a8a8;fill-opacity:1;fill-rule:nonzero;stroke:none"
         transform="translate(47.999998,47.999998)" />
      <path
         id="path23"
         d="m 460,18 h 96 v 2 h -96 z"
         style="fill:#a8a8a8;fill-opacity:1;fill-rule:nonzero;stroke:none"
         transform="translate(47.999998,47.999998)" />
      <path
         id="path24"
         d="m 556,18 h 86 v 2 h -86 z"
         style="fill:#a8a8a8;fill-opacity:1;fill-rule:nonzero;stroke:none"
         transform="translate(47.999998,47.999998)" />
      <path
         id="path25"
         d="m 642,18 h 70 v 2 h -70 z"
         style="fill:#a8a8a8;fill-opacity:1;fill-rule:nonzero;stroke:none"
         transform="translate(47.999998,47.999998)" />
      <path
         id="path26"
         d="m 8,55 h 271 v 2 H 8 Z"
         style="fill:#d3d3d3;fill-opacity:1;fill-rule:nonzero;stroke:none"
         transform="translate(47.999998,47.999998)" />
      <path
         id="path27"
         d="m 279,55 h 82 v 2 h -82 z"
         style="fill:#d3d3d3;fill-opacity:1;fill-rule:nonzero;stroke:none"
         transform="translate(47.999998,47.999998)" />
      <path
         id="path28"
         d="m 361,55 h 99 v 2 h -99 z"
         style="fill:#d3d3d3;fill-opacity:1;fill-rule:nonzero;stroke:none"
         transform="translate(47.999998,47.999998)" />
      <path
         id="path29"
         d="m 460,55 h 96 v 2 h -96 z"
         style="fill:#d3d3d3;fill-opacity:1;fill-rule:nonzero;stroke:none"
         transform="translate(47.999998,47.999998)" />
      <path
         id="path30"
         d="m 556,55 h 86 v 2 h -86 z"
         style="fill:#d3d3d3;fill-opacity:1;fill-rule:nonzero;stroke:none"
         transform="translate(47.999998,47.999998)" />
      <path
         id="path31"
         d="m 642,55 h 70 v 2 h -70 z"
         style="fill:#d3d3d3;fill-opacity:1;fill-rule:nonzero;stroke:none"
         transform="translate(47.999998,47.999998)" />
      <path
         id="path32"
         d="m 8,110 h 271 v 2 H 8 Z"
         style="fill:#d3d3d3;fill-opacity:1;fill-rule:nonzero;stroke:none"
         transform="translate(47.999998,47.999998)" />
      <path
         id="path33"
         d="m 279,110 h 82 v 2 h -82 z"
         style="fill:#d3d3d3;fill-opacity:1;fill-rule:nonzero;stroke:none"
         transform="translate(47.999998,47.999998)" />
      <path
         id="path34"
         d="m 361,110 h 99 v 2 h -99 z"
         style="fill:#d3d3d3;fill-opacity:1;fill-rule:nonzero;stroke:none"
         transform="translate(47.999998,47.999998)" />
      <path
         id="path35"
         d="m 460,110 h 96 v 2 h -96 z"
         style="fill:#d3d3d3;fill-opacity:1;fill-rule:nonzero;stroke:none"
         transform="translate(47.999998,47.999998)" />
      <path
         id="path36"
         d="m 556,110 h 86 v 2 h -86 z"
         style="fill:#d3d3d3;fill-opacity:1;fill-rule:nonzero;stroke:none"
         transform="translate(47.999998,47.999998)" />
      <path
         id="path37"
         d="m 642,110 h 70 v 2 h -70 z"
         style="fill:#d3d3d3;fill-opacity:1;fill-rule:nonzero;stroke:none"
         transform="translate(47.999998,47.999998)" />
      <path
         id="path38"
         d="m 8,113 h 272 v 2 H 8 Z"
         style="fill:#d3d3d3;fill-opacity:1;fill-rule:nonzero;stroke:none"
         transform="translate(47.999998,47.999998)" />
      <path
         id="path39"
         d="m 278,115 h 2 v 38 h -2 z"
         style="fill:#d3d3d3;fill-opacity:1;fill-rule:nonzero;stroke:none"
         transform="translate(47.999998,47.999998)" />
      <path
         id="path40"
         d="m 278,113 h 83 v 2 h -83 z"
         style="fill:#d3d3d3;fill-opacity:1;fill-rule:nonzero;stroke:none"
         transform="translate(47.999998,47.999998)" />
      <path
         id="path41"
         d="m 361,113 h 99 v 2 h -99 z"
         style="fill:#d3d3d3;fill-opacity:1;fill-rule:nonzero;stroke:none"
         transform="translate(47.999998,47.999998)" />
      <path
         id="path42"
         d="m 460,113 h 96 v 2 h -96 z"
         style="fill:#d3d3d3;fill-opacity:1;fill-rule:nonzero;stroke:none"
         transform="translate(47.999998,47.999998)" />
      <path
         id="path43"
         d="m 556,113 h 86 v 2 h -86 z"
         style="fill:#d3d3d3;fill-opacity:1;fill-rule:nonzero;stroke:none"
         transform="translate(47.999998,47.999998)" />
      <path
         id="path44"
         d="m 642,113 h 70 v 2 h -70 z"
         style="fill:#d3d3d3;fill-opacity:1;fill-rule:nonzero;stroke:none"
         transform="translate(47.999998,47.999998)" />
      <path
         id="path45"
         d="m 8,152 h 270 v 1 H 8 Z"
         style="fill:#d3d3d3;fill-opacity:1;fill-rule:nonzero;stroke:none"
         transform="translate(47.999998,47.999998)" />
      <path
         id="path46"
         d="m 278,153 h 2 v 38 h -2 z"
         style="fill:#d3d3d3;fill-opacity:1;fill-rule:nonzero;stroke:none"
         transform="translate(47.999998,47.999998)" />
      <path
         id="path47"
         d="m 280,152 h 81 v 1 h -81 z"
         style="fill:#d3d3d3;fill-opacity:1;fill-rule:nonzero;stroke:none"
         transform="translate(47.999998,47.999998)" />
      <path
         id="path48"
         d="m 361,152 h 99 v 1 h -99 z"
         style="fill:#d3d3d3;fill-opacity:1;fill-rule:nonzero;stroke:none"
         transform="translate(47.999998,47.999998)" />
      <path
         id="path49"
         d="m 460,152 h 96 v 1 h -96 z"
         style="fill:#d3d3d3;fill-opacity:1;fill-rule:nonzero;stroke:none"
         transform="translate(47.999998,47.999998)" />
      <path
         id="path50"
         d="m 556,152 h 86 v 1 h -86 z"
         style="fill:#d3d3d3;fill-opacity:1;fill-rule:nonzero;stroke:none"
         transform="translate(47.999998,47.999998)" />
      <path
         id="path51"
         d="m 642,152 h 70 v 1 h -70 z"
         style="fill:#d3d3d3;fill-opacity:1;fill-rule:nonzero;stroke:none"
         transform="translate(47.999998,47.999998)" />
      <path
         id="path52"
         d="m 8,190 h 270 v 1 H 8 Z"
         style="fill:#d3d3d3;fill-opacity:1;fill-rule:nonzero;stroke:none"
         transform="translate(47.999998,47.999998)" />
      <path
         id="path53"
         d="m 278,191 h 2 v 59 h -2 z"
         style="fill:#d3d3d3;fill-opacity:1;fill-rule:nonzero;stroke:none"
         transform="translate(47.999998,47.999998)" />
      <path
         id="path54"
         d="m 280,190 h 81 v 1 h -81 z"
         style="fill:#d3d3d3;fill-opacity:1;fill-rule:nonzero;stroke:none"
         transform="translate(47.999998,47.999998)" />
      <path
         id="path55"
         d="m 361,190 h 99 v 1 h -99 z"
         style="fill:#d3d3d3;fill-opacity:1;fill-rule:nonzero;stroke:none"
         transform="translate(47.999998,47.999998)" />
      <path
         id="path56"
         d="m 460,190 h 96 v 1 h -96 z"
         style="fill:#d3d3d3;fill-opacity:1;fill-rule:nonzero;stroke:none"
         transform="translate(47.999998,47.999998)" />
      <path
         id="path57"
         d="m 556,190 h 86 v 1 h -86 z"
         style="fill:#d3d3d3;fill-opacity:1;fill-rule:nonzero;stroke:none"
         transform="translate(47.999998,47.999998)" />
      <path
         id="path58"
         d="m 642,190 h 70 v 1 h -70 z"
         style="fill:#d3d3d3;fill-opacity:1;fill-rule:nonzero;stroke:none"
         transform="translate(47.999998,47.999998)" />
      <path
         id="path59"
         d="m 8,249 h 270 v 1 H 8 Z"
         style="fill:#d3d3d3;fill-opacity:1;fill-rule:nonzero;stroke:none"
         transform="translate(47.999998,47.999998)" />
      <path
         id="path60"
         d="m 278,250 h 2 v 60 h -2 z"
         style="fill:#d3d3d3;fill-opacity:1;fill-rule:nonzero;stroke:none"
         transform="translate(47.999998,47.999998)" />
      <path
         id="path61"
         d="m 280,249 h 81 v 1 h -81 z"
         style="fill:#d3d3d3;fill-opacity:1;fill-rule:nonzero;stroke:none"
         transform="translate(47.999998,47.999998)" />
      <path
         id="path62"
         d="m 361,249 h 99 v 1 h -99 z"
         style="fill:#d3d3d3;fill-opacity:1;fill-rule:nonzero;stroke:none"
         transform="translate(47.999998,47.999998)" />
      <path
         id="path63"
         d="m 460,249 h 96 v 1 h -96 z"
         style="fill:#d3d3d3;fill-opacity:1;fill-rule:nonzero;stroke:none"
         transform="translate(47.999998,47.999998)" />
      <path
         id="path64"
         d="m 556,249 h 86 v 1 h -86 z"
         style="fill:#d3d3d3;fill-opacity:1;fill-rule:nonzero;stroke:none"
         transform="translate(47.999998,47.999998)" />
      <path
         id="path65"
         d="m 642,249 h 70 v 1 h -70 z"
         style="fill:#d3d3d3;fill-opacity:1;fill-rule:nonzero;stroke:none"
         transform="translate(47.999998,47.999998)" />
      <path
         id="path66"
         d="m 8,308 h 270 v 2 H 8 Z"
         style="fill:#d3d3d3;fill-opacity:1;fill-rule:nonzero;stroke:none"
         transform="translate(47.999998,47.999998)" />
      <path
         id="path67"
         d="m 280,308 h 81 v 2 h -81 z"
         style="fill:#d3d3d3;fill-opacity:1;fill-rule:nonzero;stroke:none"
         transform="translate(47.999998,47.999998)" />
      <path
         id="path68"
         d="m 361,308 h 99 v 2 h -99 z"
         style="fill:#d3d3d3;fill-opacity:1;fill-rule:nonzero;stroke:none"
         transform="translate(47.999998,47.999998)" />
      <path
         id="path69"
         d="m 460,308 h 96 v 2 h -96 z"
         style="fill:#d3d3d3;fill-opacity:1;fill-rule:nonzero;stroke:none"
         transform="translate(47.999998,47.999998)" />
      <path
         id="path70"
         d="m 556,308 h 86 v 2 h -86 z"
         style="fill:#d3d3d3;fill-opacity:1;fill-rule:nonzero;stroke:none"
         transform="translate(47.999998,47.999998)" />
      <path
         id="path71"
         d="m 642,308 h 70 v 2 h -70 z"
         style="fill:#d3d3d3;fill-opacity:1;fill-rule:nonzero;stroke:none"
         transform="translate(47.999998,47.999998)" />
      <path
         id="path72"
         d="m 8,347 h 272 v 2 H 8 Z"
         style="fill:#d3d3d3;fill-opacity:1;fill-rule:nonzero;stroke:none"
         transform="translate(47.999998,47.999998)" />
      <path
         id="path73"
         d="m 278,349 h 2 v 38 h -2 z"
         style="fill:#d3d3d3;fill-opacity:1;fill-rule:nonzero;stroke:none"
         transform="translate(47.999998,47.999998)" />
      <path
         id="path74"
         d="m 278,347 h 83 v 2 h -83 z"
         style="fill:#d3d3d3;fill-opacity:1;fill-rule:nonzero;stroke:none"
         transform="translate(47.999998,47.999998)" />
      <path
         id="path75"
         d="m 361,347 h 99 v 2 h -99 z"
         style="fill:#d3d3d3;fill-opacity:1;fill-rule:nonzero;stroke:none"
         transform="translate(47.999998,47.999998)" />
      <path
         id="path76"
         d="m 460,347 h 96 v 2 h -96 z"
         style="fill:#d3d3d3;fill-opacity:1;fill-rule:nonzero;stroke:none"
         transform="translate(47.999998,47.999998)" />
      <path
         id="path77"
         d="m 556,347 h 86 v 2 h -86 z"
         style="fill:#d3d3d3;fill-opacity:1;fill-rule:nonzero;stroke:none"
         transform="translate(47.999998,47.999998)" />
      <path
         id="path78"
         d="m 642,347 h 70 v 2 h -70 z"
         style="fill:#d3d3d3;fill-opacity:1;fill-rule:nonzero;stroke:none"
         transform="translate(47.999998,47.999998)" />
      <path
         id="path79"
         d="m 8,386 h 270 v 1 H 8 Z"
         style="fill:#d3d3d3;fill-opacity:1;fill-rule:nonzero;stroke:none"
         transform="translate(47.999998,47.999998)" />
      <path
         id="path80"
         d="m 278,387 h 2 v 38 h -2 z"
         style="fill:#d3d3d3;fill-opacity:1;fill-rule:nonzero;stroke:none"
         transform="translate(47.999998,47.999998)" />
      <path
         id="path81"
         d="m 280,386 h 81 v 1 h -81 z"
         style="fill:#d3d3d3;fill-opacity:1;fill-rule:nonzero;stroke:none"
         transform="translate(47.999998,47.999998)" />
      <path
         id="path82"
         d="m 361,386 h 99 v 1 h -99 z"
         style="fill:#d3d3d3;fill-opacity:1;fill-rule:nonzero;stroke:none"
         transform="translate(47.999998,47.999998)" />
      <path
         id="path83"
         d="m 460,386 h 96 v 1 h -96 z"
         style="fill:#d3d3d3;fill-opacity:1;fill-rule:nonzero;stroke:none"
         transform="translate(47.999998,47.999998)" />
      <path
         id="path84"
         d="m 556,386 h 86 v 1 h -86 z"
         style="fill:#d3d3d3;fill-opacity:1;fill-rule:nonzero;stroke:none"
         transform="translate(47.999998,47.999998)" />
      <path
         id="path85"
         d="m 642,386 h 70 v 1 h -70 z"
         style="fill:#d3d3d3;fill-opacity:1;fill-rule:nonzero;stroke:none"
         transform="translate(47.999998,47.999998)" />
      <path
         id="path86"
         d="m 8,424 h 270 v 1 H 8 Z"
         style="fill:#d3d3d3;fill-opacity:1;fill-rule:nonzero;stroke:none"
         transform="translate(47.999998,47.999998)" />
      <path
         id="path87"
         d="m 278,425 h 2 v 39 h -2 z"
         style="fill:#d3d3d3;fill-opacity:1;fill-rule:nonzero;stroke:none"
         transform="translate(47.999998,47.999998)" />
      <path
         id="path88"
         d="m 280,424 h 81 v 1 h -81 z"
         style="fill:#d3d3d3;fill-opacity:1;fill-rule:nonzero;stroke:none"
         transform="translate(47.999998,47.999998)" />
      <path
         id="path89"
         d="m 361,424 h 99 v 1 h -99 z"
         style="fill:#d3d3d3;fill-opacity:1;fill-rule:nonzero;stroke:none"
         transform="translate(47.999998,47.999998)" />
      <path
         id="path90"
         d="m 460,424 h 96 v 1 h -96 z"
         style="fill:#d3d3d3;fill-opacity:1;fill-rule:nonzero;stroke:none"
         transform="translate(47.999998,47.999998)" />
      <path
         id="path91"
         d="m 556,424 h 86 v 1 h -86 z"
         style="fill:#d3d3d3;fill-opacity:1;fill-rule:nonzero;stroke:none"
         transform="translate(47.999998,47.999998)" />
      <path
         id="path92"
         d="m 642,424 h 70 v 1 h -70 z"
         style="fill:#d3d3d3;fill-opacity:1;fill-rule:nonzero;stroke:none"
         transform="translate(47.999998,47.999998)" />
      <path
         id="path93"
         d="m 8,462 h 270 v 2 H 8 Z"
         style="fill:#d3d3d3;fill-opacity:1;fill-rule:nonzero;stroke:none"
         transform="translate(47.999998,47.999998)" />
      <path
         id="path94"
         d="m 280,462 h 81 v 2 h -81 z"
         style="fill:#d3d3d3;fill-opacity:1;fill-rule:nonzero;stroke:none"
         transform="translate(47.999998,47.999998)" />
      <path
         id="path95"
         d="m 361,462 h 99 v 2 h -99 z"
         style="fill:#d3d3d3;fill-opacity:1;fill-rule:nonzero;stroke:none"
         transform="translate(47.999998,47.999998)" />
      <path
         id="path96"
         d="m 460,462 h 96 v 2 h -96 z"
         style="fill:#d3d3d3;fill-opacity:1;fill-rule:nonzero;stroke:none"
         transform="translate(47.999998,47.999998)" />
      <path
         id="path97"
         d="m 556,462 h 86 v 2 h -86 z"
         style="fill:#d3d3d3;fill-opacity:1;fill-rule:nonzero;stroke:none"
         transform="translate(47.999998,47.999998)" />
      <path
         id="path98"
         d="m 642,462 h 70 v 2 h -70 z"
         style="fill:#d3d3d3;fill-opacity:1;fill-rule:nonzero;stroke:none"
         transform="translate(47.999998,47.999998)" />
    </g>
    <g
       id="g98">
      <text
         id="text98"
         xml:space="preserve"
         transform="translate(310.76562,93.999996)"><tspan
           style="font-variant:normal;font-weight:normal;font-size:20px;font-family:'Segoe UI';writing-mode:lr-tb;fill:#333333;fill-opacity:1;fill-rule:nonzero;stroke:none"
           x="0 10.625 21.943359 33.701172 38.544922 49.003906 58.242188 65.019531 70.498047 79.736328 91.054688 101.23047 108.18359 118.35938 127.59766 134.375 144.83398 151.78711 156.63086 165.11719 171.89453 176.73828 185.97656"
           y="0"
           id="tspan98">Subject characteristics</tspan></text>
    </g>
    <g
       id="g99">
      <text
         id="text99"
         xml:space="preserve"
         transform="translate(332.35937,126.99999)"><tspan
           style="font-variant:normal;font-weight:normal;font-size:16px;font-family:'Segoe UI';writing-mode:lr-tb;fill:#333333;fill-opacity:1;fill-rule:nonzero;stroke:none"
           x="0 7.53125 15.898438 23.289062 28.710938 37.765625 43.328125"
           y="0"
           id="tspan99">Lecture</tspan></text>
      <text
         id="text100"
         xml:space="preserve"
         transform="translate(332.35937,147.99999)"><tspan
           style="font-variant:normal;font-weight:normal;font-size:16px;font-family:'Segoe UI';writing-mode:lr-tb;fill:#333333;fill-opacity:1;fill-rule:nonzero;stroke:none"
           x="0 8.625 17.25 25.875"
           y="0"
           id="tspan100">2022</tspan></text>
    </g>
    <g
       id="g100">
      <text
         id="text101"
         xml:space="preserve"
         transform="translate(413.56248,126.99999)"><tspan
           style="font-variant:normal;font-weight:normal;font-size:16px;font-family:'Segoe UI';writing-mode:lr-tb;fill:#333333;fill-opacity:1;fill-rule:nonzero;stroke:none"
           x="0 8.5 16.867188 30.648438 34.523438 43.578125 51.71875"
           y="0"
           id="tspan101">Seminar</tspan></text>
      <text
         id="text102"
         xml:space="preserve"
         transform="translate(413.56248,147.99999)"><tspan
           style="font-variant:normal;font-weight:normal;font-size:16px;font-family:'Segoe UI';writing-mode:lr-tb;fill:#333333;fill-opacity:1;fill-rule:nonzero;stroke:none"
           x="0 8.625 17.25 25.875 34.5 40.734375 49.359375"
           y="0"
           id="tspan102">2022/23</tspan></text>
    </g>
    <g
       id="g102">
      <text
         id="text103"
         xml:space="preserve"
         transform="translate(512.49998,126.99999)"><tspan
           style="font-variant:normal;font-weight:normal;font-size:16px;font-family:'Segoe UI';writing-mode:lr-tb;fill:#333333;fill-opacity:1;fill-rule:nonzero;stroke:none"
           x="0 7.53125 15.898438 23.289062 28.710938 37.765625 43.328125"
           y="0"
           id="tspan103">Lecture</tspan></text>
      <text
         id="text104"
         xml:space="preserve"
         transform="translate(512.49998,147.99999)"><tspan
           style="font-variant:normal;font-weight:normal;font-size:16px;font-family:'Segoe UI';writing-mode:lr-tb;fill:#333333;fill-opacity:1;fill-rule:nonzero;stroke:none"
           x="0 8.625 17.25 25.875 34.5 40.734375 49.359375"
           y="0"
           id="tspan104">2022/23</tspan></text>
    </g>
    <g
       id="g104">
      <text
         id="text105"
         xml:space="preserve"
         transform="translate(608.62497,126.99999)"><tspan
           style="font-variant:normal;font-weight:normal;font-size:16px;font-family:'Segoe UI';writing-mode:lr-tb;fill:#333333;fill-opacity:1;fill-rule:nonzero;stroke:none"
           x="0 8.5 16.867188 30.648438 34.523438 43.578125 51.71875"
           y="0"
           id="tspan105">Seminar</tspan></text>
      <text
         id="text106"
         xml:space="preserve"
         transform="translate(608.62497,147.99999)"><tspan
           style="font-variant:normal;font-weight:normal;font-size:16px;font-family:'Segoe UI';writing-mode:lr-tb;fill:#333333;fill-opacity:1;fill-rule:nonzero;stroke:none"
           x="0 8.625 17.25 25.875"
           y="0"
           id="tspan106">2023</tspan></text>
    </g>
    <g
       id="g106">
      <text
         id="text107"
         xml:space="preserve"
         transform="translate(695.42185,147.99999)"><tspan
           style="font-variant:normal;font-weight:700;font-size:16px;font-family:'Segoe UI';writing-mode:lr-tb;fill:#333333;fill-opacity:1;fill-rule:nonzero;stroke:none"
           x="0 7.9375 17.71875 23.945312 32.554688 37.101562"
           y="0"
           id="tspan107">Totals</tspan></text>
    </g>
    <g
       id="g107">
      <text
         id="text108"
         xml:space="preserve"
         transform="translate(60.999997,187.99999)"><tspan
           style="font-variant:normal;font-weight:normal;font-size:16px;font-family:'Segoe UI';writing-mode:lr-tb;fill:#333333;fill-opacity:1;fill-rule:nonzero;stroke:none"
           x="0 9.1015625 17.46875 24.257812 33.664062 43.039062 52.09375 61.515625 69.882812 78.9375 84.359375 91.148438 95.53125 100.35938 109.41406"
           y="0"
           id="tspan108">Respondents [n]</tspan></text>
    </g>
    <g
       id="g108">
      <text
         id="text109"
         xml:space="preserve"
         transform="translate(333.35937,187.99999)"><tspan
           style="font-variant:normal;font-weight:normal;font-size:16px;font-family:'Segoe UI';writing-mode:lr-tb;fill:#333333;fill-opacity:1;fill-rule:nonzero;stroke:none"
           x="0 8.625"
           y="0"
           id="tspan109">97</tspan></text>
    </g>
    <g
       id="g109">
      <text
         id="text110"
         xml:space="preserve"
         transform="translate(413.56248,187.99999)"><tspan
           style="font-variant:normal;font-weight:normal;font-size:16px;font-family:'Segoe UI';writing-mode:lr-tb;fill:#333333;fill-opacity:1;fill-rule:nonzero;stroke:none"
           x="0 8.625"
           y="0"
           id="tspan110">89</tspan></text>
    </g>
    <g
       id="g110">
      <text
         id="text111"
         xml:space="preserve"
         transform="translate(512.49998,187.99999)"><tspan
           style="font-variant:normal;font-weight:normal;font-size:16px;font-family:'Segoe UI';writing-mode:lr-tb;fill:#333333;fill-opacity:1;fill-rule:nonzero;stroke:none"
           x="0 8.625 17.25"
           y="0"
           id="tspan111">236</tspan></text>
    </g>
    <g
       id="g111">
      <text
         id="text112"
         xml:space="preserve"
         transform="translate(608.62497,187.99999)"><tspan
           style="font-variant:normal;font-weight:normal;font-size:16px;font-family:'Segoe UI';writing-mode:lr-tb;fill:#333333;fill-opacity:1;fill-rule:nonzero;stroke:none"
           x="0 8.625 17.25"
           y="0"
           id="tspan112">210</tspan></text>
    </g>
    <g
       id="g112">
      <text
         id="text113"
         xml:space="preserve"
         transform="translate(695.42185,187.99999)"><tspan
           style="font-variant:normal;font-weight:700;font-size:16px;font-family:'Segoe UI';writing-mode:lr-tb;fill:#333333;fill-opacity:1;fill-rule:nonzero;stroke:none"
           x="0 9.203125 18.40625"
           y="0"
           id="tspan113">632</tspan></text>
    </g>
    <g
       id="g113">
      <text
         id="text114"
         xml:space="preserve"
         transform="translate(60.999997,225.99999)"><tspan
           style="font-variant:normal;font-weight:normal;font-size:16px;font-family:'Segoe UI';writing-mode:lr-tb;fill:#333333;fill-opacity:1;fill-rule:nonzero;stroke:none"
           x="0 9.1015625 17.46875 24.257812 33.664062 43.039062 52.09375 58.882812 67.25 71.632812 77.195312 85.335938 90.757812 99.125 103.50781 108.33594 121.42969"
           y="0"
           id="tspan114">Response rate [%]</tspan></text>
    </g>
    <g
       id="g114">
      <text
         id="text115"
         xml:space="preserve"
         transform="translate(333.35937,225.99999)"><tspan
           style="font-variant:normal;font-weight:normal;font-size:16px;font-family:'Segoe UI';writing-mode:lr-tb;fill:#333333;fill-opacity:1;fill-rule:nonzero;stroke:none"
           x="0 8.625 17.25 20.71875"
           y="0"
           id="tspan115">90.7</tspan></text>
    </g>
    <g
       id="g115">
      <text
         id="text116"
         xml:space="preserve"
         transform="translate(413.56248,225.99999)"><tspan
           style="font-variant:normal;font-weight:normal;font-size:16px;font-family:'Segoe UI';writing-mode:lr-tb;fill:#333333;fill-opacity:1;fill-rule:nonzero;stroke:none"
           x="0 8.625 17.25 20.71875"
           y="0"
           id="tspan116">80.2</tspan></text>
    </g>
    <g
       id="g116">
      <text
         id="text117"
         xml:space="preserve"
         transform="translate(512.49998,225.99999)"><tspan
           style="font-variant:normal;font-weight:normal;font-size:16px;font-family:'Segoe UI';writing-mode:lr-tb;fill:#333333;fill-opacity:1;fill-rule:nonzero;stroke:none"
           x="0 8.625 17.25 20.71875"
           y="0"
           id="tspan117">88.7</tspan></text>
    </g>
    <g
       id="g117">
      <text
         id="text118"
         xml:space="preserve"
         transform="translate(608.62497,225.99999)"><tspan
           style="font-variant:normal;font-weight:normal;font-size:16px;font-family:'Segoe UI';writing-mode:lr-tb;fill:#333333;fill-opacity:1;fill-rule:nonzero;stroke:none"
           x="0 8.625 17.25 20.71875"
           y="0"
           id="tspan118">90.5</tspan></text>
    </g>
    <g
       id="g118">
      <text
         id="text119"
         xml:space="preserve"
         transform="translate(695.42185,225.99999)"><tspan
           style="font-variant:normal;font-weight:700;font-size:16px;font-family:'Segoe UI';writing-mode:lr-tb;fill:#333333;fill-opacity:1;fill-rule:nonzero;stroke:none"
           x="0 9.203125 18.40625 22.742188"
           y="0"
           id="tspan119">88.3</tspan></text>
    </g>
    <g
       id="g119">
      <text
         id="text120"
         xml:space="preserve"
         transform="translate(60.999997,263.99999)"><tspan
           style="font-variant:normal;font-weight:normal;font-size:16px;font-family:'Segoe UI';writing-mode:lr-tb;fill:#333333;fill-opacity:1;fill-rule:nonzero;stroke:none"
           x="0 14.367188 22.734375 30.875 39.929688 44.3125 53.71875 62.085938 67.648438 75.039062 83.40625 92.460938 97.882812 106.02344 115.44531 123.8125 128.19531 137.57031 142.57812 146.96094 154.35156 163.72656 169.28906 174.85156 183.21875 190.60938 196.03125 200.41406 208.55469 217.60938 229.17188 237.53906 243.10156"
           y="0"
           id="tspan120">Mean percentage of correct anwers</tspan></text>
      <text
         id="text121"
         xml:space="preserve"
         transform="translate(60.999997,284.99999)"><tspan
           style="font-variant:normal;font-weight:normal;font-size:16px;font-family:'Segoe UI';writing-mode:lr-tb;fill:#333333;fill-opacity:1;fill-rule:nonzero;stroke:none"
           x="0 4.828125 17.921875 22.75 27.132812 38.078125 42.460938 49.25 54.671875 62.8125 71.867188 81.289062 89.429688 94.992188 104.41406 108.79688 118.21875 126.58594 134.25 138.125 146.26562 151.6875 155.5625 164.9375"
           y="0"
           id="tspan121">[%] ± standard deviation</tspan></text>
    </g>
    <g
       id="g121">
      <text
         id="text122"
         xml:space="preserve"
         transform="translate(333.35937,263.99999)"><tspan
           style="font-variant:normal;font-weight:normal;font-size:16px;font-family:'Segoe UI';writing-mode:lr-tb;fill:#333333;fill-opacity:1;fill-rule:nonzero;stroke:none"
           x="0 8.625 17.25 20.71875 29.34375 33.726562"
           y="0"
           id="tspan122">77.1 ±</tspan></text>
      <text
         id="text123"
         xml:space="preserve"
         transform="translate(333.35937,284.99999)"><tspan
           style="font-variant:normal;font-weight:normal;font-size:16px;font-family:'Segoe UI';writing-mode:lr-tb;fill:#333333;fill-opacity:1;fill-rule:nonzero;stroke:none"
           x="0 8.625 17.25 20.71875"
           y="0"
           id="tspan123">11.4</tspan></text>
    </g>
    <g
       id="g123">
      <text
         id="text124"
         xml:space="preserve"
         transform="translate(413.56248,274.99999)"><tspan
           style="font-variant:normal;font-weight:normal;font-size:16px;font-family:'Segoe UI';writing-mode:lr-tb;fill:#333333;fill-opacity:1;fill-rule:nonzero;stroke:none"
           x="0 8.625 17.25 20.71875 29.34375 33.726562 44.671875 49.054688 57.679688 66.304688 69.773438"
           y="0"
           id="tspan124">75.5 ± 12.9</tspan></text>
    </g>
    <g
       id="g124">
      <text
         id="text125"
         xml:space="preserve"
         transform="translate(512.49998,274.99999)"><tspan
           style="font-variant:normal;font-weight:normal;font-size:16px;font-family:'Segoe UI';writing-mode:lr-tb;fill:#333333;fill-opacity:1;fill-rule:nonzero;stroke:none"
           x="0 8.625 17.25 20.71875 29.34375 33.726562 44.671875 49.054688 57.679688"
           y="0"
           id="tspan125">77.5 ± 13</tspan></text>
    </g>
    <g
       id="g125">
      <text
         id="text126"
         xml:space="preserve"
         transform="translate(608.62497,263.99999)"><tspan
           style="font-variant:normal;font-weight:normal;font-size:16px;font-family:'Segoe UI';writing-mode:lr-tb;fill:#333333;fill-opacity:1;fill-rule:nonzero;stroke:none"
           x="0 8.625 17.25 20.71875 29.34375 33.726562"
           y="0"
           id="tspan126">74.5 ±</tspan></text>
      <text
         id="text127"
         xml:space="preserve"
         transform="translate(608.62497,284.99999)"><tspan
           style="font-variant:normal;font-weight:normal;font-size:16px;font-family:'Segoe UI';writing-mode:lr-tb;fill:#333333;fill-opacity:1;fill-rule:nonzero;stroke:none"
           x="0 8.625 17.25 20.71875"
           y="0"
           id="tspan127">10.7</tspan></text>
    </g>
    <g
       id="g127">
      <text
         id="text128"
         xml:space="preserve"
         transform="translate(695.42185,263.99999)"><tspan
           style="font-variant:normal;font-weight:700;font-size:16px;font-family:'Segoe UI';writing-mode:lr-tb;fill:#333333;fill-opacity:1;fill-rule:nonzero;stroke:none"
           x="0 9.203125 18.40625 22.742188 31.945312 36.359375"
           y="0"
           id="tspan128">76.1 ±</tspan></text>
      <text
         id="text129"
         xml:space="preserve"
         transform="translate(695.42185,284.99999)"><tspan
           style="font-variant:normal;font-weight:700;font-size:16px;font-family:'Segoe UI';writing-mode:lr-tb;fill:#333333;fill-opacity:1;fill-rule:nonzero;stroke:none"
           x="0 9.203125"
           y="0"
           id="tspan129">12</tspan></text>
    </g>
    <g
       id="g129">
      <text
         id="text130"
         xml:space="preserve"
         transform="translate(60.999997,322.99999)"><tspan
           style="font-variant:normal;font-weight:normal;font-size:16px;font-family:'Segoe UI';writing-mode:lr-tb;fill:#333333;fill-opacity:1;fill-rule:nonzero;stroke:none"
           x="0 14.367188 22.734375 30.875 39.929688 44.3125 52.453125 61.875 70.242188 74.625 79.453125 87.195312 95.5625 103.70312 109.26562 116.05469 120.88281 125.26562 136.21094 140.59375 147.38281 152.80469 160.94531 170 179.42188 187.5625 193.125"
           y="0"
           id="tspan130">Mean age [years] ± standard</tspan></text>
      <text
         id="text131"
         xml:space="preserve"
         transform="translate(60.999997,343.99999)"><tspan
           style="font-variant:normal;font-weight:normal;font-size:16px;font-family:'Segoe UI';writing-mode:lr-tb;fill:#333333;fill-opacity:1;fill-rule:nonzero;stroke:none"
           x="0 9.421875 17.789062 25.453125 29.328125 37.46875 42.890625 46.765625 56.140625"
           y="0"
           id="tspan131">deviation</tspan></text>
    </g>
    <g
       id="g131">
      <text
         id="text132"
         xml:space="preserve"
         transform="translate(333.35937,333.99999)"><tspan
           style="font-variant:normal;font-weight:normal;font-size:16px;font-family:'Segoe UI';writing-mode:lr-tb;fill:#333333;fill-opacity:1;fill-rule:nonzero;stroke:none"
           x="0 8.625 17.25 20.71875 29.34375 33.726562 44.671875 49.054688 57.679688 61.148438"
           y="0"
           id="tspan132">24.3 ± 4.3</tspan></text>
    </g>
    <g
       id="g132">
      <text
         id="text133"
         xml:space="preserve"
         transform="translate(413.56248,333.99999)"><tspan
           style="font-variant:normal;font-weight:normal;font-size:16px;font-family:'Segoe UI';writing-mode:lr-tb;fill:#333333;fill-opacity:1;fill-rule:nonzero;stroke:none"
           x="0 8.625 17.25 21.632812 32.578125 36.960938 45.585938 49.054688"
           y="0"
           id="tspan133">24 ± 2.8</tspan></text>
    </g>
    <g
       id="g133">
      <text
         id="text134"
         xml:space="preserve"
         transform="translate(512.49998,333.99999)"><tspan
           style="font-variant:normal;font-weight:normal;font-size:16px;font-family:'Segoe UI';writing-mode:lr-tb;fill:#333333;fill-opacity:1;fill-rule:nonzero;stroke:none"
           x="0 8.625 17.25 20.71875 29.34375 33.726562 44.671875 49.054688 57.679688 61.148438"
           y="0"
           id="tspan134">22.9 ± 2.5</tspan></text>
    </g>
    <g
       id="g134">
      <text
         id="text135"
         xml:space="preserve"
         transform="translate(608.62497,333.99999)"><tspan
           style="font-variant:normal;font-weight:normal;font-size:16px;font-family:'Segoe UI';writing-mode:lr-tb;fill:#333333;fill-opacity:1;fill-rule:nonzero;stroke:none"
           x="0 8.625 17.25 20.71875 29.34375 33.726562 44.671875 49.054688 57.679688 61.148438"
           y="0"
           id="tspan135">23.1 ± 2.2</tspan></text>
    </g>
    <g
       id="g135">
      <text
         id="text136"
         xml:space="preserve"
         transform="translate(695.42185,322.99999)"><tspan
           style="font-variant:normal;font-weight:700;font-size:16px;font-family:'Segoe UI';writing-mode:lr-tb;fill:#333333;fill-opacity:1;fill-rule:nonzero;stroke:none"
           x="0 9.203125 18.40625 22.742188 31.945312 36.359375"
           y="0"
           id="tspan136">23.4 ±</tspan></text>
      <text
         id="text137"
         xml:space="preserve"
         transform="translate(695.42185,343.99999)"><tspan
           style="font-variant:normal;font-weight:700;font-size:16px;font-family:'Segoe UI';writing-mode:lr-tb;fill:#333333;fill-opacity:1;fill-rule:nonzero;stroke:none"
           x="0 9.203125 13.539062"
           y="0"
           id="tspan137">2.8</tspan></text>
    </g>
    <g
       id="g137">
      <text
         id="text138"
         xml:space="preserve"
         transform="translate(60.999997,382.99998)"><tspan
           style="font-variant:normal;font-weight:normal;font-size:16px;font-family:'Segoe UI';writing-mode:lr-tb;fill:#333333;fill-opacity:1;fill-rule:nonzero;stroke:none"
           x="0 10.976562 19.34375 28.398438 37.820312 46.1875"
           y="0"
           id="tspan138">Gender</tspan></text>
    </g>
    <g
       id="g138">
      <text
         id="text139"
         xml:space="preserve"
         transform="translate(75.999997,421.99998)"><tspan
           style="font-variant:normal;font-weight:normal;font-size:16px;font-family:'Segoe UI';writing-mode:lr-tb;fill:#333333;fill-opacity:1;fill-rule:nonzero;stroke:none"
           x="0 14.367188 22.507812 26.382812"
           y="0"
           id="tspan139">Male</tspan></text>
    </g>
    <g
       id="g139">
      <text
         id="text140"
         xml:space="preserve"
         transform="translate(333.35937,421.99998)"><tspan
           style="font-variant:normal;font-weight:normal;font-size:16px;font-family:'Segoe UI';writing-mode:lr-tb;fill:#333333;fill-opacity:1;fill-rule:nonzero;stroke:none"
           x="0 8.625"
           y="0"
           id="tspan140">56</tspan></text>
    </g>
    <g
       id="g140">
      <text
         id="text141"
         xml:space="preserve"
         transform="translate(413.56248,421.99998)"><tspan
           style="font-variant:normal;font-weight:normal;font-size:16px;font-family:'Segoe UI';writing-mode:lr-tb;fill:#333333;fill-opacity:1;fill-rule:nonzero;stroke:none"
           x="0 8.625"
           y="0"
           id="tspan141">58</tspan></text>
    </g>
    <g
       id="g141">
      <text
         id="text142"
         xml:space="preserve"
         transform="translate(512.49998,421.99998)"><tspan
           style="font-variant:normal;font-weight:normal;font-size:16px;font-family:'Segoe UI';writing-mode:lr-tb;fill:#333333;fill-opacity:1;fill-rule:nonzero;stroke:none"
           x="0 8.625 17.25"
           y="0"
           id="tspan142">145</tspan></text>
    </g>
    <g
       id="g142">
      <text
         id="text143"
         xml:space="preserve"
         transform="translate(608.62497,421.99998)"><tspan
           style="font-variant:normal;font-weight:normal;font-size:16px;font-family:'Segoe UI';writing-mode:lr-tb;fill:#333333;fill-opacity:1;fill-rule:nonzero;stroke:none"
           x="0 8.625 17.25"
           y="0"
           id="tspan143">132</tspan></text>
    </g>
    <g
       id="g143">
      <text
         id="text144"
         xml:space="preserve"
         transform="translate(695.42185,421.99998)"><tspan
           style="font-variant:normal;font-weight:700;font-size:16px;font-family:'Segoe UI';writing-mode:lr-tb;fill:#333333;fill-opacity:1;fill-rule:nonzero;stroke:none"
           x="0 9.203125 18.40625"
           y="0"
           id="tspan144">391</tspan></text>
    </g>
    <g
       id="g144">
      <text
         id="text145"
         xml:space="preserve"
         transform="translate(75.999997,459.99998)"><tspan
           style="font-variant:normal;font-weight:normal;font-size:16px;font-family:'Segoe UI';writing-mode:lr-tb;fill:#333333;fill-opacity:1;fill-rule:nonzero;stroke:none"
           x="0 7.8125 16.179688 29.960938 38.101562 41.976562"
           y="0"
           id="tspan145">Female</tspan></text>
    </g>
    <g
       id="g145">
      <text
         id="text146"
         xml:space="preserve"
         transform="translate(333.35937,459.99998)"><tspan
           style="font-variant:normal;font-weight:normal;font-size:16px;font-family:'Segoe UI';writing-mode:lr-tb;fill:#333333;fill-opacity:1;fill-rule:nonzero;stroke:none"
           x="0 8.625"
           y="0"
           id="tspan146">36</tspan></text>
    </g>
    <g
       id="g146">
      <text
         id="text147"
         xml:space="preserve"
         transform="translate(413.56248,459.99998)"><tspan
           style="font-variant:normal;font-weight:normal;font-size:16px;font-family:'Segoe UI';writing-mode:lr-tb;fill:#333333;fill-opacity:1;fill-rule:nonzero;stroke:none"
           x="0 8.625"
           y="0"
           id="tspan147">30</tspan></text>
    </g>
    <g
       id="g147">
      <text
         id="text148"
         xml:space="preserve"
         transform="translate(512.49998,459.99998)"><tspan
           style="font-variant:normal;font-weight:normal;font-size:16px;font-family:'Segoe UI';writing-mode:lr-tb;fill:#333333;fill-opacity:1;fill-rule:nonzero;stroke:none"
           x="0 8.625"
           y="0"
           id="tspan148">87</tspan></text>
    </g>
    <g
       id="g148">
      <text
         id="text149"
         xml:space="preserve"
         transform="translate(608.62497,459.99998)"><tspan
           style="font-variant:normal;font-weight:normal;font-size:16px;font-family:'Segoe UI';writing-mode:lr-tb;fill:#333333;fill-opacity:1;fill-rule:nonzero;stroke:none"
           x="0 8.625"
           y="0"
           id="tspan149">72</tspan></text>
    </g>
    <g
       id="g149">
      <text
         id="text150"
         xml:space="preserve"
         transform="translate(695.42185,459.99998)"><tspan
           style="font-variant:normal;font-weight:700;font-size:16px;font-family:'Segoe UI';writing-mode:lr-tb;fill:#333333;fill-opacity:1;fill-rule:nonzero;stroke:none"
           x="0 9.203125 18.40625"
           y="0"
           id="tspan150">225</tspan></text>
    </g>
    <g
       id="g150">
      <text
         id="text151"
         xml:space="preserve"
         transform="translate(75.999997,497.99998)"><tspan
           style="font-variant:normal;font-weight:normal;font-size:16px;font-family:'Segoe UI';writing-mode:lr-tb;fill:#333333;fill-opacity:1;fill-rule:nonzero;stroke:none"
           x="0 11.96875 21.34375 30.398438 36.796875 46.203125 50.078125 59.132812 67.273438 72.835938 80.578125 84.960938 94.335938 99.898438 104.28125 109.84375 118.21094 123.21875 132.27344 139.0625 147.42969 156.85156 161.23438 166.65625 176.03125 180.41406 189.83594 193.71094 200.5 207.89062 211.76562 221.14062 227.92969"
           y="0"
           id="tspan151">Non-binary or refused to disclose</tspan></text>
    </g>
    <g
       id="g151">
      <text
         id="text152"
         xml:space="preserve"
         transform="translate(333.35937,497.99998)"><tspan
           style="font-variant:normal;font-weight:normal;font-size:16px;font-family:'Segoe UI';writing-mode:lr-tb;fill:#333333;fill-opacity:1;fill-rule:nonzero;stroke:none"
           x="0"
           y="0"
           id="tspan152">5</tspan></text>
    </g>
    <g
       id="g152">
      <text
         id="text153"
         xml:space="preserve"
         transform="translate(413.56248,497.99998)"><tspan
           style="font-variant:normal;font-weight:normal;font-size:16px;font-family:'Segoe UI';writing-mode:lr-tb;fill:#333333;fill-opacity:1;fill-rule:nonzero;stroke:none"
           x="0"
           y="0"
           id="tspan153">1</tspan></text>
    </g>
    <g
       id="g153">
      <text
         id="text154"
         xml:space="preserve"
         transform="translate(512.49998,497.99998)"><tspan
           style="font-variant:normal;font-weight:normal;font-size:16px;font-family:'Segoe UI';writing-mode:lr-tb;fill:#333333;fill-opacity:1;fill-rule:nonzero;stroke:none"
           x="0"
           y="0"
           id="tspan154">4</tspan></text>
    </g>
    <g
       id="g154">
      <text
         id="text155"
         xml:space="preserve"
         transform="translate(608.62497,497.99998)"><tspan
           style="font-variant:normal;font-weight:normal;font-size:16px;font-family:'Segoe UI';writing-mode:lr-tb;fill:#333333;fill-opacity:1;fill-rule:nonzero;stroke:none"
           x="0"
           y="0"
           id="tspan155">6</tspan></text>
    </g>
    <g
       id="g155">
      <text
         id="text156"
         xml:space="preserve"
         transform="translate(695.42185,497.99998)"><tspan
           style="font-variant:normal;font-weight:700;font-size:16px;font-family:'Segoe UI';writing-mode:lr-tb;fill:#333333;fill-opacity:1;fill-rule:nonzero;stroke:none"
           x="0 9.203125"
           y="0"
           id="tspan156">16</tspan></text>
    </g>
  </g>
</svg>
